<svg width="11" height="8" viewBox="0 0 11 8" fill="none" xmlns="http://www.w3.org/2000/svg">
<path fill-rule="evenodd" clip-rule="evenodd" d="M0.145978 4.35402C0.099415 4.30758 0.0624722 4.2524 0.0372657 4.19165C0.0120593 4.13091 -0.000915527 4.06579 -0.000915527 4.00002C-0.000915527 3.93425 0.0120593 3.86913 0.0372657 3.80839C0.0624722 3.74764 0.099415 3.69247 0.145978 3.64602L3.14598 0.646021C3.19247 0.599533 3.24766 0.562657 3.30839 0.537498C3.36913 0.512339 3.43423 0.49939 3.49998 0.49939C3.56572 0.49939 3.63082 0.512339 3.69156 0.537498C3.7523 0.562657 3.80749 0.599533 3.85398 0.646021C3.90047 0.692509 3.93734 0.747698 3.9625 0.808438C3.98766 0.869177 4.00061 0.934278 4.00061 1.00002C4.00061 1.06577 3.98766 1.13087 3.9625 1.19161C3.93734 1.25234 3.90047 1.30753 3.85398 1.35402L1.70698 3.50002H10.5C10.6326 3.50002 10.7598 3.5527 10.8535 3.64647C10.9473 3.74024 11 3.86741 11 4.00002C11 4.13263 10.9473 4.25981 10.8535 4.35358C10.7598 4.44734 10.6326 4.50002 10.5 4.50002H1.70698L3.85398 6.64602C3.90047 6.69251 3.93734 6.7477 3.9625 6.80844C3.98766 6.86918 4.00061 6.93428 4.00061 7.00002C4.00061 7.06577 3.98766 7.13087 3.9625 7.19161C3.93734 7.25234 3.90047 7.30753 3.85398 7.35402C3.80749 7.40051 3.7523 7.43739 3.69156 7.46254C3.63082 7.4877 3.56572 7.50065 3.49998 7.50065C3.43423 7.50065 3.36913 7.4877 3.30839 7.46254C3.24766 7.43739 3.19247 7.40051 3.14598 7.35402L0.145978 4.35402Z" fill="black"/>
</svg>
