<svg width="35" height="29" viewBox="0 0 35 29" fill="none" xmlns="http://www.w3.org/2000/svg">
<path fill-rule="evenodd" clip-rule="evenodd" d="M1.06485 0.000104612C0.925736 -0.00183613 0.787612 0.0232439 0.658508 0.0738844C0.529405 0.124525 0.411898 0.199693 0.312817 0.295066C0.213736 0.39044 0.135058 0.504116 0.0813566 0.62944C0.0276547 0.754765 0 0.889288 0 1.02514C0 1.16099 0.0276547 1.29551 0.0813566 1.42084C0.135058 1.54616 0.213736 1.65984 0.312817 1.75521C0.411898 1.85059 0.529405 1.92575 0.658508 1.97639C0.787612 2.02704 0.925736 2.05212 1.06485 2.05017H4.61049C5.36301 2.05017 6.02347 2.51926 6.25892 3.22734L10.9691 17.3959L8.89697 18.8133C8.16911 19.3103 7.70237 20.0853 7.70233 21.0504V21.1888C7.70233 22.6856 8.96888 23.9196 10.5017 23.9196H33.9351C34.0743 23.9215 34.2124 23.8964 34.3415 23.8458C34.4706 23.7952 34.5881 23.7198 34.6872 23.6245C34.7863 23.5291 34.8649 23.4156 34.9186 23.2902C34.9723 23.1649 35 23.0304 35 22.8945C35 22.7587 34.9723 22.6242 34.9186 22.4989C34.8649 22.3735 34.7863 22.2598 34.6872 22.1645C34.5881 22.0691 34.4706 21.9939 34.3415 21.9433C34.2124 21.8927 34.0743 21.8676 33.9351 21.8695H10.5017C10.1027 21.8695 9.80182 21.5772 9.80182 21.1888V21.0504C9.80184 20.9016 10.0171 20.5487 10.0998 20.4925L12.5902 18.792H29.2823C30.339 18.792 31.282 18.1177 31.606 17.137L34.8783 7.22864C35.3787 5.71406 34.1864 4.10024 32.5546 4.10024H12.2512C12.1121 4.0983 11.974 4.12338 11.8449 4.17402C11.7158 4.22467 11.5983 4.29983 11.4992 4.39521C11.4001 4.49058 11.3214 4.60426 11.2677 4.72958C11.214 4.8549 11.1864 4.98927 11.1864 5.12512C11.1864 5.26097 11.214 5.3955 11.2677 5.52082C11.3214 5.64615 11.4001 5.75982 11.4992 5.8552C11.5983 5.95057 11.7158 6.02574 11.8449 6.07638C11.974 6.12702 12.1121 6.1521 12.2512 6.15016H32.5546C32.814 6.15016 32.9629 6.35013 32.8799 6.60119L32.2375 8.5417H15.0615C14.9688 8.5404 14.8767 8.55712 14.7906 8.59088C14.7046 8.62464 14.6262 8.67486 14.5602 8.73844C14.4941 8.80202 14.4417 8.87765 14.4059 8.9612C14.3701 9.04475 14.3516 9.13454 14.3516 9.2251C14.3516 9.31567 14.3701 9.4053 14.4059 9.48885C14.4417 9.5724 14.4941 9.64819 14.5602 9.71177C14.6262 9.77535 14.7046 9.82541 14.7906 9.85917C14.8767 9.89293 14.9688 9.90965 15.0615 9.90836H31.7864L30.8843 12.6417H17.8609C17.7681 12.6404 17.676 12.6571 17.59 12.6909C17.5039 12.7246 17.4256 12.7748 17.3595 12.8384C17.2935 12.902 17.241 12.9778 17.2052 13.0613C17.1694 13.1449 17.151 13.2345 17.151 13.3251C17.151 13.4157 17.1694 13.5053 17.2052 13.5888C17.241 13.6724 17.2935 13.7482 17.3595 13.8118C17.4256 13.8753 17.5039 13.9254 17.59 13.9592C17.676 13.9929 17.7681 14.0098 17.8609 14.0085H30.4332L29.6077 16.5068C29.5592 16.653 29.4326 16.7418 29.2823 16.7418H12.962L8.25728 2.5947C7.74496 1.05414 6.26817 0.000104612 4.61049 0.000104612H1.06485Z" fill="url(#paint0_linear_3_3)"/>
<path d="M17.1781 26.9501C17.1781 27.4938 16.9569 28.0152 16.5631 28.3997C16.1694 28.7841 15.6354 29 15.0786 29C14.5217 29 13.9877 28.7841 13.594 28.3997C13.2003 28.0152 12.9791 27.4938 12.9791 26.9501C12.9791 26.4064 13.2003 25.885 13.594 25.5005C13.9877 25.1161 14.5217 24.9 15.0786 24.9C15.6354 24.9 16.1694 25.1161 16.5631 25.5005C16.9569 25.885 17.1781 26.4064 17.1781 26.9501Z" fill="#039FFD"/>
<path d="M31.4754 26.9501C31.4754 27.4938 31.2542 28.0152 30.8604 28.3997C30.4667 28.7841 29.9327 29 29.3759 29C28.819 29 28.285 28.7841 27.8913 28.3997C27.4976 28.0152 27.2764 27.4938 27.2764 26.9501C27.2764 26.4064 27.4976 25.885 27.8913 25.5005C28.285 25.1161 28.819 24.9 29.3759 24.9C29.9327 24.9 30.4667 25.1161 30.8604 25.5005C31.2542 25.885 31.4754 26.4064 31.4754 26.9501Z" fill="#316BF7"/>
<defs>
<linearGradient id="paint0_linear_3_3" x1="34.5" y1="22.6825" x2="4.5209" y2="-6.49701" gradientUnits="userSpaceOnUse">
<stop stop-color="#3371FF"/>
<stop offset="1" stop-color="#5BC1FF"/>
</linearGradient>
</defs>
</svg>
