<svg width="120" height="120" viewBox="0 0 120 120" fill="none" xmlns="http://www.w3.org/2000/svg">
<mask id="mask0_1_10" style="mask-type:alpha" maskUnits="userSpaceOnUse" x="0" y="0" width="120" height="120">
<rect width="120" height="120" fill="black"/>
</mask>
<g mask="url(#mask0_1_10)">
<path fill-rule="evenodd" clip-rule="evenodd" d="M17.7382 15.0003C17.3805 14.9943 17.0253 15.0719 16.6933 15.2286C16.3613 15.3853 16.0591 15.6178 15.8044 15.9128C15.5496 16.2079 15.3473 16.5596 15.2092 16.9473C15.0711 17.3351 15 17.7512 15 18.1715C15 18.5918 15.0711 19.008 15.2092 19.3956C15.3473 19.7833 15.5496 20.135 15.8044 20.4301C16.0591 20.7252 16.3613 20.9577 16.6933 21.1143C17.0253 21.271 17.3805 21.3486 17.7382 21.3426H26.8555C28.7905 21.3426 30.4889 22.7938 31.0944 24.9844L43.2063 68.8175L37.8779 73.2025C36.0063 74.74 34.8061 77.1377 34.806 80.1232V80.5514C34.806 85.1821 38.0629 88.9997 42.0043 88.9997H102.262C102.619 89.0057 102.975 88.9281 103.307 88.7714C103.639 88.6148 103.941 88.3817 104.196 88.0867C104.45 87.7916 104.653 87.4404 104.791 87.0527C104.929 86.6649 105 86.2489 105 85.8286C105 85.4082 104.929 84.9921 104.791 84.6044C104.653 84.2167 104.45 83.865 104.196 83.5699C103.941 83.2748 103.639 83.0423 103.307 82.8857C102.975 82.729 102.619 82.6514 102.262 82.6574H42.0043C40.9783 82.6574 40.2047 81.753 40.2047 80.5514V80.1232C40.2047 79.6629 40.7582 78.5712 40.9709 78.3972L47.3748 73.1366H90.2973C93.0149 73.1366 95.4393 71.0504 96.2724 68.0166L104.687 37.3631C105.974 32.6775 102.908 27.6849 98.7119 27.6849H46.5032C46.1455 27.6789 45.7903 27.7565 45.4583 27.9132C45.1263 28.0698 44.8242 28.3023 44.5694 28.5974C44.3146 28.8925 44.1123 29.2442 43.9742 29.6318C43.8361 30.0195 43.765 30.4352 43.765 30.8556C43.765 31.2759 43.8361 31.6919 43.9742 32.0797C44.1123 32.4674 44.3146 32.8191 44.5694 33.1142C44.8242 33.4092 45.1263 33.6418 45.4583 33.7984C45.7903 33.9551 46.1455 34.0327 46.5032 34.0267H98.7119C99.3786 34.0267 99.7617 34.6453 99.5482 35.4221L97.8964 41.4253H53.7296C53.4912 41.4213 53.2544 41.4731 53.033 41.5775C52.8117 41.6819 52.6103 41.8373 52.4404 42.034C52.2706 42.2307 52.1357 42.4646 52.0436 42.7231C51.9515 42.9816 51.9041 43.2594 51.9041 43.5396C51.9041 43.8198 51.9515 44.0971 52.0436 44.3556C52.1357 44.6141 52.2706 44.8484 52.4404 45.0452C52.6103 45.2419 52.8117 45.3968 53.033 45.5012C53.2544 45.6056 53.4912 45.6574 53.7296 45.6534H96.7367L94.4166 54.1094H60.9279C60.6897 54.1054 60.4524 54.1571 60.231 54.2615C60.0104 54.366 59.8088 54.5214 59.6384 54.7181C59.4688 54.9148 59.334 55.1492 59.2419 55.4077C59.1499 55.6662 59.1025 55.9434 59.1025 56.2236C59.1025 56.5038 59.1499 56.7812 59.2419 57.0395C59.334 57.298 59.4688 57.5325 59.6384 57.7293C59.8088 57.926 60.0104 58.0808 60.231 58.1852C60.4524 58.2897 60.6897 58.3419 60.9279 58.3379H93.257L91.1336 66.0668C91.0094 66.519 90.6836 66.794 90.2973 66.794H48.3309L36.233 23.0272C34.9156 18.2612 31.1181 15.0003 26.8555 15.0003H17.7382Z" fill="black"/>
<path d="M60 98.5002C60 100.224 59.4206 101.878 58.3891 103.097C57.3577 104.316 55.9587 105 54.5 105C53.0413 105 51.6423 104.316 50.6109 103.097C49.5794 101.878 49 100.224 49 98.5002C49 96.7763 49.5794 95.123 50.6109 93.9039C51.6423 92.6849 53.0413 92 54.5 92C55.9587 92 57.3577 92.6849 58.3891 93.9039C59.4206 95.123 60 96.7763 60 98.5002Z" fill="black"/>
<path d="M96 98.5002C96 100.224 95.4206 101.878 94.3893 103.097C93.3579 104.316 91.959 105 90.5 105C89.041 105 87.6421 104.316 86.6107 103.097C85.5794 101.878 85 100.224 85 98.5002C85 96.7763 85.5794 95.123 86.6107 93.9039C87.6421 92.6849 89.041 92 90.5 92C91.959 92 93.3579 92.6849 94.3893 93.9039C95.4206 95.123 96 96.7763 96 98.5002Z" fill="black"/>
</g>
</svg>
