<svg width="200" height="50" viewBox="0 0 200 50" fill="none" xmlns="http://www.w3.org/2000/svg">
<g clip-path="url(#clip0_3_2)">
<path fill-rule="evenodd" clip-rule="evenodd" d="M5.06485 12.0001C4.92574 11.9982 4.78761 12.0232 4.65851 12.0739C4.5294 12.1245 4.4119 12.1997 4.31282 12.2951C4.21374 12.3904 4.13506 12.5041 4.08136 12.6294C4.02765 12.7548 4 12.8893 4 13.0251C4 13.161 4.02765 13.2955 4.08136 13.4208C4.13506 13.5462 4.21374 13.6598 4.31282 13.7552C4.4119 13.8506 4.5294 13.9258 4.65851 13.9764C4.78761 14.027 4.92574 14.0521 5.06485 14.0502H8.61049C9.36301 14.0502 10.0235 14.5193 10.2589 15.2273L14.9691 29.3959L12.897 30.8133C12.1691 31.3103 11.7024 32.0853 11.7023 33.0504V33.1888C11.7023 34.6856 12.9689 35.9196 14.5017 35.9196H37.9351C38.0743 35.9215 38.2124 35.8964 38.3415 35.8458C38.4706 35.7952 38.5881 35.7198 38.6872 35.6245C38.7863 35.5291 38.8649 35.4156 38.9186 35.2902C38.9723 35.1649 39 35.0304 39 34.8945C39 34.7587 38.9723 34.6242 38.9186 34.4989C38.8649 34.3735 38.7863 34.2598 38.6872 34.1645C38.5881 34.0691 38.4706 33.9939 38.3415 33.9433C38.2124 33.8927 38.0743 33.8676 37.9351 33.8695H14.5017C14.1027 33.8695 13.8018 33.5772 13.8018 33.1888V33.0504C13.8018 32.9016 14.0171 32.5487 14.0998 32.4925L16.5902 30.792H33.2823C34.339 30.792 35.282 30.1177 35.606 29.137L38.8783 19.2286C39.3787 17.7141 38.1864 16.1002 36.5546 16.1002H16.2512C16.1121 16.0983 15.974 16.1234 15.8449 16.174C15.7158 16.2247 15.5983 16.2998 15.4992 16.3952C15.4001 16.4906 15.3214 16.6043 15.2677 16.7296C15.214 16.8549 15.1864 16.9893 15.1864 17.1251C15.1864 17.261 15.214 17.3955 15.2677 17.5208C15.3214 17.6461 15.4001 17.7598 15.4992 17.8552C15.5983 17.9506 15.7158 18.0257 15.8449 18.0764C15.974 18.127 16.1121 18.1521 16.2512 18.1502H36.5546C36.814 18.1502 36.9629 18.3501 36.8799 18.6012L36.2375 20.5417H19.0615C18.9688 20.5404 18.8767 20.5571 18.7906 20.5909C18.7046 20.6246 18.6262 20.6749 18.5602 20.7384C18.4941 20.802 18.4417 20.8777 18.4059 20.9612C18.3701 21.0447 18.3516 21.1345 18.3516 21.2251C18.3516 21.3157 18.3701 21.4053 18.4059 21.4889C18.4417 21.5724 18.4941 21.6482 18.5602 21.7118C18.6262 21.7754 18.7046 21.8254 18.7906 21.8592C18.8767 21.8929 18.9688 21.9097 19.0615 21.9084H35.7864L34.8843 24.6417H21.8609C21.7681 24.6404 21.676 24.6571 21.59 24.6909C21.5039 24.7246 21.4256 24.7748 21.3595 24.8384C21.2935 24.902 21.241 24.9778 21.2052 25.0613C21.1694 25.1449 21.151 25.2345 21.151 25.3251C21.151 25.4157 21.1694 25.5053 21.2052 25.5888C21.241 25.6724 21.2935 25.7482 21.3595 25.8118C21.4256 25.8753 21.5039 25.9254 21.59 25.9592C21.676 25.9929 21.7681 26.0098 21.8609 26.0085H34.4332L33.6077 28.5068C33.5592 28.653 33.4326 28.7418 33.2823 28.7418H16.962L12.2573 14.5947C11.745 13.0541 10.2682 12.0001 8.61049 12.0001H5.06485Z" fill="black"/>
<path d="M21.1781 38.9501C21.1781 39.4938 20.9569 40.0152 20.5631 40.3997C20.1694 40.7841 19.6354 41 19.0786 41C18.5217 41 17.9877 40.7841 17.594 40.3997C17.2003 40.0152 16.9791 39.4938 16.9791 38.9501C16.9791 38.4064 17.2003 37.885 17.594 37.5005C17.9877 37.1161 18.5217 36.9 19.0786 36.9C19.6354 36.9 20.1694 37.1161 20.5631 37.5005C20.9569 37.885 21.1781 38.4064 21.1781 38.9501Z" fill="black"/>
<path d="M35.4754 38.9501C35.4754 39.4938 35.2542 40.0152 34.8604 40.3997C34.4667 40.7841 33.9327 41 33.3759 41C32.819 41 32.285 40.7841 31.8913 40.3997C31.4976 40.0152 31.2764 39.4938 31.2764 38.9501C31.2764 38.4064 31.4976 37.885 31.8913 37.5005C32.285 37.1161 32.819 36.9 33.3759 36.9C33.9327 36.9 34.4667 37.1161 34.8604 37.5005C35.2542 37.885 35.4754 38.4064 35.4754 38.9501Z" fill="black"/>
<path d="M57.0703 22.6016C57.0078 21.9714 56.7396 21.4818 56.2656 21.1328C55.7917 20.7839 55.1484 20.6094 54.3359 20.6094C53.7839 20.6094 53.3177 20.6875 52.9375 20.8437C52.5573 20.9948 52.2656 21.2057 52.0625 21.4766C51.8646 21.7474 51.7656 22.0547 51.7656 22.3984C51.7552 22.6849 51.8151 22.9349 51.9453 23.1484C52.0807 23.362 52.2656 23.5469 52.5 23.7031C52.7344 23.8542 53.0052 23.987 53.3125 24.1016C53.6198 24.2109 53.9479 24.3047 54.2969 24.3828L55.7344 24.7266C56.4323 24.8828 57.0729 25.0911 57.6562 25.3516C58.2396 25.612 58.7448 25.9323 59.1719 26.3125C59.599 26.6927 59.9297 27.1406 60.1641 27.6562C60.4036 28.1719 60.526 28.763 60.5312 29.4297C60.526 30.4089 60.276 31.2578 59.7813 31.9766C59.2917 32.6901 58.5833 33.2448 57.6562 33.6406C56.7344 34.0312 55.6224 34.2266 54.3203 34.2266C53.0286 34.2266 51.9036 34.0286 50.9453 33.6328C49.9922 33.237 49.2474 32.651 48.7109 31.875C48.1797 31.0937 47.901 30.1276 47.875 28.9766H51.1484C51.1849 29.513 51.3385 29.9609 51.6094 30.3203C51.8854 30.6745 52.2526 30.9427 52.7109 31.125C53.1745 31.3021 53.6979 31.3906 54.2812 31.3906C54.8542 31.3906 55.3516 31.3073 55.7734 31.1406C56.2005 30.974 56.5313 30.7422 56.7656 30.4453C57 30.1484 57.1172 29.8073 57.1172 29.4219C57.1172 29.0625 57.0104 28.7604 56.7969 28.5156C56.5885 28.2708 56.2813 28.0625 55.875 27.8906C55.474 27.7187 54.9818 27.5625 54.3984 27.4219L52.6563 26.9844C51.3073 26.6562 50.2422 26.1432 49.4609 25.4453C48.6797 24.7474 48.2917 23.8073 48.2969 22.625C48.2917 21.6562 48.5495 20.8099 49.0703 20.0859C49.5964 19.362 50.3177 18.7969 51.2344 18.3906C52.151 17.9844 53.1927 17.7812 54.3594 17.7812C55.5469 17.7812 56.5833 17.9844 57.4688 18.3906C58.3594 18.7969 59.0521 19.362 59.5469 20.0859C60.0417 20.8099 60.2969 21.6484 60.3125 22.6016H57.0703ZM70.4395 28.8906V22H73.7676V34H70.5723V31.8203H70.4473C70.1764 32.5234 69.7259 33.0885 69.0957 33.5156C68.4707 33.9427 67.7077 34.1563 66.8066 34.1563C66.0046 34.1563 65.2988 33.974 64.6895 33.6094C64.0801 33.2448 63.6035 32.7266 63.2598 32.0547C62.9212 31.3828 62.7493 30.5781 62.7441 29.6406V22H66.0723V29.0469C66.0775 29.7552 66.2676 30.3151 66.6426 30.7266C67.0176 31.138 67.5202 31.3437 68.1504 31.3437C68.5514 31.3437 68.9264 31.2526 69.2754 31.0703C69.6243 30.8828 69.9056 30.6068 70.1191 30.2422C70.3379 29.8776 70.4447 29.4271 70.4395 28.8906ZM76.4297 38.5V22H79.7109V24.0156H79.8594C80.0052 23.6927 80.2161 23.3646 80.4922 23.0312C80.7734 22.6927 81.138 22.4115 81.5859 22.1875C82.0391 21.9583 82.6016 21.8438 83.2734 21.8438C84.1484 21.8438 84.9557 22.0729 85.6953 22.5313C86.4349 22.9844 87.026 23.6693 87.4687 24.5859C87.9115 25.4974 88.1328 26.6406 88.1328 28.0156C88.1328 29.3542 87.9167 30.4844 87.4844 31.4062C87.0573 32.3229 86.474 33.0182 85.7344 33.4922C85 33.9609 84.1771 34.1953 83.2656 34.1953C82.6198 34.1953 82.0703 34.0885 81.6172 33.875C81.1693 33.6615 80.8021 33.3932 80.5156 33.0703C80.2292 32.7422 80.0104 32.4115 79.8594 32.0781H79.7578V38.5H76.4297ZM79.6875 28C79.6875 28.7135 79.7865 29.3359 79.9844 29.8672C80.1823 30.3984 80.4688 30.8125 80.8438 31.1094C81.2188 31.401 81.6745 31.5469 82.2109 31.5469C82.7526 31.5469 83.2109 31.3984 83.5859 31.1016C83.9609 30.7995 84.2448 30.3828 84.4375 29.8516C84.6354 29.3151 84.7344 28.6979 84.7344 28C84.7344 27.3073 84.638 26.6979 84.4453 26.1719C84.2526 25.6458 83.9688 25.2344 83.5938 24.9375C83.2188 24.6406 82.7578 24.4922 82.2109 24.4922C81.6693 24.4922 81.2109 24.6354 80.8359 24.9219C80.4661 25.2083 80.1823 25.6146 79.9844 26.1406C79.7865 26.6667 79.6875 27.2865 79.6875 28ZM95.8203 34.2344C94.5859 34.2344 93.5234 33.9844 92.6328 33.4844C91.7474 32.9792 91.0651 32.2656 90.5859 31.3437C90.1068 30.4167 89.8672 29.3203 89.8672 28.0547C89.8672 26.8203 90.1068 25.737 90.5859 24.8047C91.0651 23.8724 91.7396 23.1458 92.6094 22.625C93.4844 22.1042 94.5104 21.8438 95.6875 21.8438C96.4792 21.8438 97.2161 21.9714 97.8984 22.2266C98.5859 22.4766 99.1849 22.8542 99.6953 23.3594C100.211 23.8646 100.612 24.5 100.898 25.2656C101.185 26.026 101.328 26.9167 101.328 27.9375V28.8516H91.1953V26.7891H98.1953C98.1953 26.3099 98.0911 25.8854 97.8828 25.5156C97.6745 25.1458 97.3854 24.8568 97.0156 24.6484C96.651 24.4349 96.2266 24.3281 95.7422 24.3281C95.237 24.3281 94.7891 24.4453 94.3984 24.6797C94.013 24.9089 93.7109 25.2187 93.4922 25.6094C93.2734 25.9948 93.1615 26.4245 93.1563 26.8984V28.8594C93.1563 29.4531 93.2656 29.9661 93.4844 30.3984C93.7083 30.8307 94.0234 31.1641 94.4297 31.3984C94.8359 31.6328 95.3177 31.75 95.875 31.75C96.2448 31.75 96.5833 31.6979 96.8906 31.5938C97.1979 31.4896 97.4609 31.3333 97.6797 31.125C97.8984 30.9167 98.0651 30.6615 98.1797 30.3594L101.258 30.5625C101.102 31.3021 100.781 31.9479 100.297 32.5C99.8177 33.0469 99.1979 33.474 98.4375 33.7813C97.6823 34.0833 96.8099 34.2344 95.8203 34.2344ZM103.5 34V22H106.727V24.0937H106.852C107.07 23.349 107.438 22.7865 107.953 22.4063C108.469 22.0208 109.063 21.8281 109.734 21.8281C109.901 21.8281 110.081 21.8385 110.273 21.8594C110.466 21.8802 110.635 21.9089 110.781 21.9453V24.8984C110.625 24.8516 110.409 24.8099 110.133 24.7734C109.857 24.737 109.604 24.7188 109.375 24.7188C108.885 24.7188 108.448 24.8255 108.063 25.0391C107.682 25.2474 107.38 25.5391 107.156 25.9141C106.938 26.2891 106.828 26.7214 106.828 27.2109V34H103.5ZM121.244 22.6016C121.182 21.9714 120.913 21.4818 120.439 21.1328C119.965 20.7839 119.322 20.6094 118.51 20.6094C117.958 20.6094 117.492 20.6875 117.111 20.8437C116.731 20.9948 116.439 21.2057 116.236 21.4766C116.038 21.7474 115.939 22.0547 115.939 22.3984C115.929 22.6849 115.989 22.9349 116.119 23.1484C116.255 23.362 116.439 23.5469 116.674 23.7031C116.908 23.8542 117.179 23.987 117.486 24.1016C117.794 24.2109 118.122 24.3047 118.471 24.3828L119.908 24.7266C120.606 24.8828 121.247 25.0911 121.83 25.3516C122.413 25.612 122.919 25.9323 123.346 26.3125C123.773 26.6927 124.104 27.1406 124.338 27.6562C124.577 28.1719 124.7 28.763 124.705 29.4297C124.7 30.4089 124.45 31.2578 123.955 31.9766C123.465 32.6901 122.757 33.2448 121.83 33.6406C120.908 34.0312 119.796 34.2266 118.494 34.2266C117.202 34.2266 116.077 34.0286 115.119 33.6328C114.166 33.237 113.421 32.651 112.885 31.875C112.354 31.0937 112.075 30.1276 112.049 28.9766H115.322C115.359 29.513 115.512 29.9609 115.783 30.3203C116.059 30.6745 116.426 30.9427 116.885 31.125C117.348 31.3021 117.872 31.3906 118.455 31.3906C119.028 31.3906 119.525 31.3073 119.947 31.1406C120.374 30.974 120.705 30.7422 120.939 30.4453C121.174 30.1484 121.291 29.8073 121.291 29.4219C121.291 29.0625 121.184 28.7604 120.971 28.5156C120.762 28.2708 120.455 28.0625 120.049 27.8906C119.648 27.7187 119.156 27.5625 118.572 27.4219L116.83 26.9844C115.481 26.6562 114.416 26.1432 113.635 25.4453C112.854 24.7474 112.465 23.8073 112.471 22.625C112.465 21.6562 112.723 20.8099 113.244 20.0859C113.77 19.362 114.492 18.7969 115.408 18.3906C116.325 17.9844 117.367 17.7812 118.533 17.7812C119.721 17.7812 120.757 17.9844 121.643 18.3906C122.533 18.7969 123.226 19.362 123.721 20.0859C124.215 20.8099 124.471 21.6484 124.486 22.6016H121.244ZM130.246 27.0625V34H126.918V18H130.152V24.1172H130.293C130.564 23.4089 131.001 22.8542 131.605 22.4531C132.21 22.0469 132.967 21.8438 133.879 21.8438C134.712 21.8438 135.439 22.026 136.059 22.3906C136.684 22.75 137.168 23.2682 137.512 23.9453C137.861 24.6172 138.033 25.4219 138.027 26.3594V34H134.699V26.9531C134.704 26.2135 134.517 25.638 134.137 25.2266C133.762 24.8151 133.236 24.6094 132.559 24.6094C132.105 24.6094 131.704 24.7057 131.355 24.8984C131.012 25.0911 130.741 25.3724 130.543 25.7422C130.35 26.1068 130.251 26.5469 130.246 27.0625ZM146.068 34.2344C144.855 34.2344 143.805 33.9766 142.92 33.4609C142.04 32.9401 141.36 32.2161 140.881 31.2891C140.402 30.3568 140.162 29.276 140.162 28.0469C140.162 26.8073 140.402 25.724 140.881 24.7969C141.36 23.8646 142.04 23.1406 142.92 22.625C143.805 22.1042 144.855 21.8438 146.068 21.8438C147.282 21.8438 148.329 22.1042 149.209 22.625C150.094 23.1406 150.777 23.8646 151.256 24.7969C151.735 25.724 151.975 26.8073 151.975 28.0469C151.975 29.276 151.735 30.3568 151.256 31.2891C150.777 32.2161 150.094 32.9401 149.209 33.4609C148.329 33.9766 147.282 34.2344 146.068 34.2344ZM146.084 31.6562C146.636 31.6562 147.097 31.5 147.467 31.1875C147.837 30.8698 148.115 30.4375 148.303 29.8906C148.495 29.3437 148.592 28.7214 148.592 28.0234C148.592 27.3255 148.495 26.7031 148.303 26.1562C148.115 25.6094 147.837 25.1771 147.467 24.8594C147.097 24.5417 146.636 24.3828 146.084 24.3828C145.527 24.3828 145.058 24.5417 144.678 24.8594C144.303 25.1771 144.019 25.6094 143.826 26.1562C143.639 26.7031 143.545 27.3255 143.545 28.0234C143.545 28.7214 143.639 29.3437 143.826 29.8906C144.019 30.4375 144.303 30.8698 144.678 31.1875C145.058 31.5 145.527 31.6562 146.084 31.6562ZM154.139 38.5V22H157.42V24.0156H157.568C157.714 23.6927 157.925 23.3646 158.201 23.0312C158.482 22.6927 158.847 22.4115 159.295 22.1875C159.748 21.9583 160.311 21.8438 160.982 21.8438C161.857 21.8438 162.665 22.0729 163.404 22.5313C164.144 22.9844 164.735 23.6693 165.178 24.5859C165.62 25.4974 165.842 26.6406 165.842 28.0156C165.842 29.3542 165.626 30.4844 165.193 31.4062C164.766 32.3229 164.183 33.0182 163.443 33.4922C162.709 33.9609 161.886 34.1953 160.975 34.1953C160.329 34.1953 159.779 34.0885 159.326 33.875C158.878 33.6615 158.511 33.3932 158.225 33.0703C157.938 32.7422 157.719 32.4115 157.568 32.0781H157.467V38.5H154.139ZM157.396 28C157.396 28.7135 157.495 29.3359 157.693 29.8672C157.891 30.3984 158.178 30.8125 158.553 31.1094C158.928 31.401 159.383 31.5469 159.92 31.5469C160.462 31.5469 160.92 31.3984 161.295 31.1016C161.67 30.7995 161.954 30.3828 162.146 29.8516C162.344 29.3151 162.443 28.6979 162.443 28C162.443 27.3073 162.347 26.6979 162.154 26.1719C161.962 25.6458 161.678 25.2344 161.303 24.9375C160.928 24.6406 160.467 24.4922 159.92 24.4922C159.378 24.4922 158.92 24.6354 158.545 24.9219C158.175 25.2083 157.891 25.6146 157.693 26.1406C157.495 26.6667 157.396 27.2865 157.396 28ZM168.061 38.5V22H171.342V24.0156H171.49C171.636 23.6927 171.847 23.3646 172.123 23.0312C172.404 22.6927 172.769 22.4115 173.217 22.1875C173.67 21.9583 174.232 21.8438 174.904 21.8438C175.779 21.8438 176.587 22.0729 177.326 22.5313C178.066 22.9844 178.657 23.6693 179.1 24.5859C179.542 25.4974 179.764 26.6406 179.764 28.0156C179.764 29.3542 179.548 30.4844 179.115 31.4062C178.688 32.3229 178.105 33.0182 177.365 33.4922C176.631 33.9609 175.808 34.1953 174.896 34.1953C174.251 34.1953 173.701 34.0885 173.248 33.875C172.8 33.6615 172.433 33.3932 172.146 33.0703C171.86 32.7422 171.641 32.4115 171.49 32.0781H171.389V38.5H168.061ZM171.318 28C171.318 28.7135 171.417 29.3359 171.615 29.8672C171.813 30.3984 172.1 30.8125 172.475 31.1094C172.85 31.401 173.305 31.5469 173.842 31.5469C174.383 31.5469 174.842 31.3984 175.217 31.1016C175.592 30.7995 175.876 30.3828 176.068 29.8516C176.266 29.3151 176.365 28.6979 176.365 28C176.365 27.3073 176.269 26.6979 176.076 26.1719C175.883 25.6458 175.6 25.2344 175.225 24.9375C174.85 24.6406 174.389 24.4922 173.842 24.4922C173.3 24.4922 172.842 24.6354 172.467 24.9219C172.097 25.2083 171.813 25.6146 171.615 26.1406C171.417 26.6667 171.318 27.2865 171.318 28ZM183.65 38.5C183.229 38.5 182.833 38.4661 182.463 38.3984C182.098 38.3359 181.796 38.2552 181.557 38.1562L182.307 35.6719C182.697 35.7917 183.049 35.8568 183.361 35.8672C183.679 35.8776 183.952 35.8047 184.182 35.6484C184.416 35.4922 184.606 35.2266 184.752 34.8516L184.947 34.3438L180.643 22H184.143L186.627 30.8125H186.752L189.26 22H192.783L188.119 35.2969C187.895 35.9427 187.59 36.5052 187.205 36.9844C186.825 37.4688 186.343 37.8411 185.76 38.1016C185.176 38.3672 184.473 38.5 183.65 38.5Z" fill="url(#paint0_linear_3_2)"/>
</g>
<defs>
<linearGradient id="paint0_linear_3_2" x1="191" y1="41.5" x2="52.1551" y2="11.2872" gradientUnits="userSpaceOnUse">
<stop stop-color="#3269F7"/>
<stop offset="0.9999" stop-color="#00A3FE"/>
<stop offset="1" stop-color="#88A2FF"/>
</linearGradient>
<clipPath id="clip0_3_2">
<rect width="200" height="50" fill="white"/>
</clipPath>
</defs>
</svg>
