<svg width="200" height="200" viewBox="0 0 200 200" fill="none" xmlns="http://www.w3.org/2000/svg">
<path fill-rule="evenodd" clip-rule="evenodd" d="M47.438 10.0003C46.9888 9.9943 46.5429 10.0721 46.126 10.2293C45.7092 10.3865 45.3298 10.6197 45.01 10.9157C44.6901 11.2117 44.436 11.5645 44.2627 11.9534C44.0893 12.3424 44 12.7599 44 13.1815C44 13.6031 44.0893 14.0206 44.2627 14.4095C44.436 14.7984 44.6901 15.1512 45.01 15.4472C45.3298 15.7432 45.7092 15.9765 46.126 16.1336C46.5429 16.2908 46.9888 16.3686 47.438 16.3626H58.8853C61.3148 16.3626 63.4472 17.8184 64.2074 20.0159L79.4146 63.9873L72.7245 68.3862C70.3746 69.9285 68.8676 72.3338 68.8675 75.3287V75.7583C68.8675 80.4036 72.9567 84.2332 77.9054 84.2332H153.562C154.011 84.2392 154.457 84.1614 154.874 84.0042C155.291 83.8471 155.67 83.6133 155.99 83.3173C156.31 83.0213 156.564 82.669 156.737 82.2801C156.911 81.8911 157 81.4737 157 81.0521C157 80.6304 156.911 80.213 156.737 79.824C156.564 79.4351 156.31 79.0823 155.99 78.7863C155.67 78.4903 155.291 78.257 154.874 78.0999C154.457 77.9427 154.011 77.8649 153.562 77.8709H77.9054C76.6172 77.8709 75.6459 76.9636 75.6459 75.7583V75.3287C75.6459 74.867 76.3408 73.7718 76.6079 73.5973L84.6484 68.3201H138.54C141.952 68.3201 144.996 66.2273 146.042 63.1839L156.607 32.4337C158.223 27.7333 154.373 22.7249 149.105 22.7249H83.554C83.1049 22.7189 82.6589 22.7967 82.2421 22.9539C81.8253 23.111 81.4459 23.3443 81.126 23.6403C80.8061 23.9363 80.5521 24.2891 80.3787 24.678C80.2053 25.0669 80.1161 25.4839 80.1161 25.9056C80.1161 26.3272 80.2053 26.7446 80.3787 27.1336C80.5521 27.5225 80.8061 27.8753 81.126 28.1713C81.4459 28.4673 81.8253 28.7006 82.2421 28.8577C82.6589 29.0149 83.1049 29.0927 83.554 29.0867H149.105C149.942 29.0867 150.423 29.7073 150.155 30.4865L148.081 36.5087H92.6272C92.3278 36.5047 92.0305 36.5566 91.7526 36.6614C91.4747 36.7661 91.2218 36.922 91.0085 37.1193C90.7953 37.3166 90.6259 37.5513 90.5103 37.8106C90.3947 38.0699 90.3352 38.3486 90.3352 38.6296C90.3352 38.9107 90.3947 39.1889 90.5103 39.4482C90.6259 39.7075 90.7953 39.9426 91.0085 40.14C91.2218 40.3373 91.4747 40.4927 91.7526 40.5974C92.0305 40.7022 92.3278 40.7541 92.6272 40.7501H146.625L143.712 49.2328H101.665C101.366 49.2288 101.068 49.2807 100.79 49.3854C100.513 49.4902 100.26 49.6461 100.046 49.8434C99.8331 50.0407 99.6638 50.2759 99.5482 50.5352C99.4326 50.7945 99.3731 51.0726 99.3731 51.3537C99.3731 51.6348 99.4326 51.913 99.5482 52.1722C99.6638 52.4315 99.8331 52.6667 100.046 52.8641C100.26 53.0614 100.513 53.2167 100.79 53.3215C101.068 53.4263 101.366 53.4787 101.665 53.4746H142.256L139.59 61.2279C139.434 61.6816 139.025 61.9574 138.54 61.9574H85.8488L70.6592 18.0525C69.0052 13.2715 64.2372 10.0003 58.8853 10.0003H47.438Z" fill="black"/>
<path d="M99.4606 93.6382C99.4606 95.3256 98.7465 96.9438 97.4753 98.137C96.2041 99.3301 94.48 100 92.6822 100C90.8845 100 89.1604 99.3301 87.8892 98.137C86.618 96.9438 85.9039 95.3256 85.9039 93.6382C85.9039 91.9509 86.618 90.3327 87.8892 89.1395C89.1604 87.9464 90.8845 87.276 92.6822 87.276C94.48 87.276 96.2041 87.9464 97.4753 89.1395C98.7465 90.3327 99.4606 91.9509 99.4606 93.6382Z" fill="black"/>
<path d="M145.62 93.6382C145.62 95.3256 144.906 96.9438 143.635 98.137C142.364 99.3301 140.64 100 138.842 100C137.044 100 135.32 99.3301 134.049 98.137C132.778 96.9438 132.064 95.3256 132.064 93.6382C132.064 91.9509 132.778 90.3327 134.049 89.1395C135.32 87.9464 137.044 87.276 138.842 87.276C140.64 87.276 142.364 87.9464 143.635 89.1395C144.906 90.3327 145.62 91.9509 145.62 93.6382Z" fill="black"/>
<path d="M76.8718 116.668C76.7866 115.73 76.4073 115.001 75.734 114.482C75.0692 113.953 74.119 113.689 72.8832 113.689C72.065 113.689 71.3832 113.795 70.8377 114.009C70.2923 114.222 69.8832 114.516 69.6104 114.891C69.3377 115.257 69.1971 115.679 69.1886 116.156C69.1715 116.548 69.2482 116.893 69.4187 117.192C69.5977 117.49 69.8533 117.754 70.1857 117.984C70.5266 118.206 70.9357 118.402 71.413 118.572C71.8903 118.743 72.4272 118.892 73.0238 119.02L75.2738 119.531C76.5692 119.812 77.7113 120.188 78.6999 120.656C79.6971 121.125 80.5323 121.683 81.2056 122.331C81.8874 122.979 82.4031 123.724 82.7525 124.568C83.1019 125.412 83.2809 126.358 83.2894 127.406C83.2809 129.06 82.8633 130.479 82.0366 131.663C81.2099 132.848 80.021 133.756 78.4698 134.386C76.9272 135.017 75.065 135.332 72.8832 135.332C70.6928 135.332 68.7837 135.004 67.1559 134.348C65.5281 133.692 64.2624 132.695 63.359 131.357C62.4556 130.018 61.9911 128.327 61.9656 126.281H68.0252C68.0763 127.125 68.3022 127.828 68.7028 128.391C69.1033 128.953 69.6531 129.379 70.3519 129.669C71.0593 129.959 71.8775 130.104 72.8065 130.104C73.6587 130.104 74.3832 129.989 74.9798 129.759C75.5849 129.528 76.0494 129.209 76.3732 128.8C76.6971 128.391 76.8633 127.922 76.8718 127.393C76.8633 126.899 76.7099 126.477 76.4116 126.128C76.1133 125.77 75.6531 125.463 75.0309 125.207C74.4173 124.943 73.6332 124.7 72.6786 124.479L69.9428 123.839C67.6758 123.32 65.8903 122.48 64.5863 121.321C63.2823 120.153 62.6346 118.577 62.6431 116.591C62.6346 114.972 63.0692 113.553 63.9471 112.334C64.8249 111.115 66.0394 110.165 67.5906 109.483C69.1417 108.801 70.9102 108.46 72.896 108.46C74.9244 108.46 76.6843 108.805 78.1758 109.496C79.6758 110.178 80.8391 111.136 81.6658 112.372C82.4925 113.608 82.9144 115.04 82.9315 116.668H76.8718ZM99.1545 126.524V115.364H105.393V135H99.4357V131.344H99.2312C98.7965 132.545 98.055 133.5 97.0067 134.207C95.967 134.906 94.7099 135.256 93.2354 135.256C91.8974 135.256 90.7212 134.949 89.707 134.335C88.6928 133.722 87.9045 132.865 87.342 131.766C86.7795 130.658 86.494 129.362 86.4854 127.879V115.364H92.7369V126.652C92.7454 127.717 93.0266 128.557 93.5806 129.17C94.1346 129.784 94.8888 130.091 95.8434 130.091C96.4656 130.091 97.0238 129.955 97.5181 129.682C98.021 129.401 98.4173 128.996 98.707 128.467C99.0053 127.93 99.1545 127.283 99.1545 126.524ZM109.372 142.364V115.364H115.56V118.726H115.751C116.007 118.129 116.369 117.554 116.838 117C117.315 116.446 117.92 115.994 118.653 115.645C119.395 115.287 120.281 115.108 121.312 115.108C122.676 115.108 123.95 115.466 125.135 116.182C126.328 116.898 127.291 118.001 128.024 119.493C128.757 120.984 129.124 122.885 129.124 125.195C129.124 127.419 128.77 129.281 128.062 130.781C127.364 132.281 126.418 133.406 125.224 134.156C124.04 134.906 122.723 135.281 121.274 135.281C120.286 135.281 119.429 135.119 118.705 134.795C117.98 134.472 117.371 134.045 116.876 133.517C116.391 132.989 116.016 132.422 115.751 131.817H115.624V142.364H109.372ZM115.496 125.182C115.496 126.239 115.636 127.159 115.918 127.943C116.207 128.727 116.621 129.337 117.158 129.771C117.703 130.197 118.355 130.411 119.114 130.411C119.881 130.411 120.533 130.197 121.07 129.771C121.607 129.337 122.011 128.727 122.284 127.943C122.565 127.159 122.706 126.239 122.706 125.182C122.706 124.125 122.565 123.209 122.284 122.433C122.011 121.658 121.607 121.057 121.07 120.631C120.541 120.205 119.889 119.991 119.114 119.991C118.347 119.991 117.695 120.2 117.158 120.618C116.621 121.036 116.207 121.632 115.918 122.408C115.636 123.183 115.496 124.108 115.496 125.182ZM141.578 135.371C139.525 135.371 137.752 134.966 136.26 134.156C134.777 133.338 133.635 132.175 132.834 130.666C132.042 129.149 131.645 127.347 131.645 125.259C131.645 123.23 132.046 121.457 132.847 119.94C133.648 118.415 134.777 117.23 136.235 116.386C137.692 115.534 139.409 115.108 141.387 115.108C142.784 115.108 144.063 115.325 145.222 115.76C146.381 116.195 147.382 116.838 148.226 117.69C149.07 118.543 149.726 119.595 150.195 120.848C150.664 122.092 150.898 123.52 150.898 125.131V126.69H133.831V123.06H145.081C145.073 122.395 144.915 121.803 144.608 121.283C144.301 120.763 143.88 120.358 143.343 120.068C142.814 119.77 142.205 119.621 141.515 119.621C140.816 119.621 140.189 119.778 139.635 120.094C139.081 120.401 138.642 120.822 138.319 121.359C137.995 121.888 137.824 122.489 137.807 123.162V126.857C137.807 127.658 137.965 128.361 138.28 128.966C138.596 129.562 139.043 130.027 139.623 130.359C140.202 130.692 140.892 130.858 141.694 130.858C142.248 130.858 142.75 130.781 143.202 130.628C143.654 130.474 144.042 130.249 144.365 129.95C144.689 129.652 144.932 129.286 145.094 128.851L150.834 129.017C150.596 130.304 150.071 131.425 149.262 132.379C148.461 133.325 147.408 134.062 146.104 134.591C144.8 135.111 143.292 135.371 141.578 135.371ZM154.091 135V115.364H160.163V118.943H160.368C160.726 117.648 161.31 116.685 162.119 116.054C162.929 115.415 163.871 115.095 164.945 115.095C165.234 115.095 165.533 115.116 165.839 115.159C166.146 115.193 166.432 115.249 166.696 115.325V120.759C166.398 120.656 166.006 120.575 165.52 120.516C165.043 120.456 164.616 120.426 164.241 120.426C163.5 120.426 162.831 120.592 162.234 120.925C161.646 121.249 161.182 121.705 160.841 122.293C160.509 122.872 160.342 123.554 160.342 124.338V135H154.091ZM62.2292 160.668C62.144 159.73 61.7647 159.001 61.0914 158.482C60.4267 157.953 59.4764 157.689 58.2406 157.689C57.4224 157.689 56.7406 157.795 56.1951 158.009C55.6497 158.222 55.2406 158.516 54.9679 158.891C54.6951 159.257 54.5545 159.679 54.546 160.156C54.5289 160.548 54.6056 160.893 54.7761 161.192C54.9551 161.49 55.2108 161.754 55.5431 161.984C55.8841 162.206 56.2931 162.402 56.7704 162.572C57.2477 162.743 57.7846 162.892 58.3812 163.02L60.6312 163.531C61.9267 163.812 63.0687 164.188 64.0574 164.656C65.0545 165.125 65.8897 165.683 66.563 166.331C67.2449 166.979 67.7605 167.724 68.1099 168.568C68.4593 169.412 68.6383 170.358 68.6468 171.406C68.6383 173.06 68.2207 174.479 67.394 175.663C66.5673 176.848 65.3784 177.756 63.8272 178.386C62.2846 179.017 60.4224 179.332 58.2406 179.332C56.0502 179.332 54.1412 179.004 52.5133 178.348C50.8855 177.692 49.6199 176.695 48.7164 175.357C47.813 174.018 47.3485 172.327 47.323 170.281H53.3826C53.4338 171.125 53.6596 171.828 54.0602 172.391C54.4608 172.953 55.0105 173.379 55.7093 173.669C56.4167 173.959 57.2349 174.104 58.1639 174.104C59.0162 174.104 59.7406 173.989 60.3372 173.759C60.9423 173.528 61.4068 173.209 61.7306 172.8C62.0545 172.391 62.2207 171.922 62.2292 171.393C62.2207 170.899 62.0673 170.477 61.769 170.128C61.4707 169.77 61.0105 169.463 60.3883 169.207C59.7747 168.943 58.9906 168.7 58.036 168.479L55.3002 167.839C53.0332 167.32 51.2477 166.48 49.9437 165.321C48.6397 164.153 47.992 162.577 48.0005 160.591C47.992 158.972 48.4267 157.553 49.3045 156.334C50.1824 155.115 51.3968 154.165 52.948 153.483C54.4991 152.801 56.2676 152.46 58.2534 152.46C60.2818 152.46 62.0417 152.805 63.5332 153.496C65.0332 154.178 66.1966 155.136 67.0233 156.372C67.85 157.608 68.2718 159.04 68.2889 160.668H62.2292ZM78.0943 167.801V179H71.8429V152.818H77.8897V162.969H78.1071C78.5502 161.759 79.2747 160.812 80.2804 160.131C81.2946 159.449 82.5346 159.108 84.0005 159.108C85.3812 159.108 86.5829 159.415 87.6056 160.028C88.6284 160.634 89.421 161.49 89.9835 162.598C90.5545 163.706 90.8358 165.001 90.8272 166.484V179H84.5758V167.712C84.5843 166.621 84.3116 165.768 83.7576 165.155C83.2037 164.541 82.4238 164.234 81.4181 164.234C80.7619 164.234 80.1824 164.379 79.6795 164.669C79.1852 164.95 78.7974 165.355 78.5162 165.884C78.2434 166.412 78.1028 167.051 78.0943 167.801ZM103.896 179.371C101.833 179.371 100.061 178.949 98.5776 178.105C97.1032 177.253 95.9654 176.068 95.1642 174.551C94.3716 173.026 93.9753 171.257 93.9753 169.246C93.9753 167.226 94.3716 165.457 95.1642 163.94C95.9654 162.415 97.1032 161.23 98.5776 160.386C100.061 159.534 101.833 159.108 103.896 159.108C105.958 159.108 107.727 159.534 109.201 160.386C110.684 161.23 111.822 162.415 112.615 163.94C113.416 165.457 113.816 167.226 113.816 169.246C113.816 171.257 113.416 173.026 112.615 174.551C111.822 176.068 110.684 177.253 109.201 178.105C107.727 178.949 105.958 179.371 103.896 179.371ZM103.934 174.653C104.684 174.653 105.319 174.423 105.839 173.963C106.359 173.503 106.755 172.864 107.028 172.045C107.309 171.227 107.45 170.281 107.45 169.207C107.45 168.116 107.309 167.162 107.028 166.344C106.755 165.526 106.359 164.886 105.839 164.426C105.319 163.966 104.684 163.736 103.934 163.736C103.159 163.736 102.502 163.966 101.965 164.426C101.437 164.886 101.032 165.526 100.751 166.344C100.478 167.162 100.342 168.116 100.342 169.207C100.342 170.281 100.478 171.227 100.751 172.045C101.032 172.864 101.437 173.503 101.965 173.963C102.502 174.423 103.159 174.653 103.934 174.653ZM117.019 186.364V159.364H123.206V162.726H123.398C123.654 162.129 124.016 161.554 124.485 161C124.962 160.446 125.567 159.994 126.3 159.645C127.041 159.287 127.928 159.108 128.959 159.108C130.323 159.108 131.597 159.466 132.781 160.182C133.975 160.898 134.938 162.001 135.671 163.493C136.404 164.984 136.77 166.885 136.77 169.195C136.77 171.419 136.416 173.281 135.709 174.781C135.01 176.281 134.064 177.406 132.871 178.156C131.686 178.906 130.369 179.281 128.921 179.281C127.932 179.281 127.075 179.119 126.351 178.795C125.627 178.472 125.017 178.045 124.523 177.517C124.037 176.989 123.662 176.422 123.398 175.817H123.27V186.364H117.019ZM123.142 169.182C123.142 170.239 123.283 171.159 123.564 171.943C123.854 172.727 124.267 173.337 124.804 173.771C125.35 174.197 126.002 174.411 126.76 174.411C127.527 174.411 128.179 174.197 128.716 173.771C129.253 173.337 129.658 172.727 129.931 171.943C130.212 171.159 130.352 170.239 130.352 169.182C130.352 168.125 130.212 167.209 129.931 166.433C129.658 165.658 129.253 165.057 128.716 164.631C128.188 164.205 127.536 163.991 126.76 163.991C125.993 163.991 125.341 164.2 124.804 164.618C124.267 165.036 123.854 165.632 123.564 166.408C123.283 167.183 123.142 168.108 123.142 169.182ZM140.046 186.364V159.364H146.233V162.726H146.425C146.681 162.129 147.043 161.554 147.512 161C147.989 160.446 148.594 159.994 149.327 159.645C150.069 159.287 150.955 159.108 151.986 159.108C153.35 159.108 154.624 159.466 155.809 160.182C157.002 160.898 157.965 162.001 158.698 163.493C159.431 164.984 159.797 166.885 159.797 169.195C159.797 171.419 159.444 173.281 158.736 174.781C158.037 176.281 157.091 177.406 155.898 178.156C154.714 178.906 153.397 179.281 151.948 179.281C150.959 179.281 150.103 179.119 149.378 178.795C148.654 178.472 148.045 178.045 147.55 177.517C147.064 176.989 146.689 176.422 146.425 175.817H146.297V186.364H140.046ZM146.17 169.182C146.17 170.239 146.31 171.159 146.591 171.943C146.881 172.727 147.295 173.337 147.831 173.771C148.377 174.197 149.029 174.411 149.787 174.411C150.555 174.411 151.206 174.197 151.743 173.771C152.28 173.337 152.685 172.727 152.958 171.943C153.239 171.159 153.38 170.239 153.38 169.182C153.38 168.125 153.239 167.209 152.958 166.433C152.685 165.658 152.28 165.057 151.743 164.631C151.215 164.205 150.563 163.991 149.787 163.991C149.02 163.991 148.368 164.2 147.831 164.618C147.295 165.036 146.881 165.632 146.591 166.408C146.31 167.183 146.17 168.108 146.17 169.182ZM166.263 186.364C165.513 186.364 164.806 186.304 164.141 186.185C163.476 186.074 162.905 185.925 162.428 185.737L163.808 181.199C164.422 181.403 164.976 181.523 165.47 181.557C165.973 181.591 166.404 181.51 166.762 181.314C167.128 181.126 167.409 180.79 167.605 180.304L167.848 179.716L160.868 159.364H167.414L171.031 173.375H171.236L174.905 159.364H181.489L174.087 180.879C173.729 181.953 173.222 182.899 172.566 183.717C171.918 184.544 171.078 185.192 170.047 185.661C169.024 186.129 167.763 186.364 166.263 186.364Z" fill="url(#paint0_linear_3_2)"/>
<defs>
<linearGradient id="paint0_linear_3_2" x1="180.929" y1="203.796" x2="35.1364" y2="194.722" gradientUnits="userSpaceOnUse">
<stop stop-color="#3269F7"/>
<stop offset="0.9999" stop-color="#00A3FE"/>
<stop offset="1" stop-color="#88A2FF"/>
</linearGradient>
</defs>
</svg>
